<svg width="16" height="16" viewBox="0 0 16 16" fill="none" xmlns="http://www.w3.org/2000/svg">
<g clip-path="url(#clip0)">
<path d="M4.19042 10.2856H1.14277C0.9407 10.2856 0.746904 10.2053 0.604018 10.0624C0.461132 9.91951 0.380859 9.72572 0.380859 9.52365V1.14276C0.380859 0.940691 0.461132 0.746898 0.604018 0.604015C0.746904 0.461131 0.9407 0.380859 1.14277 0.380859H6.54168C6.74361 0.380902 6.93726 0.461104 7.0801 0.603842L8.5389 2.06263C8.68164 2.20546 8.76185 2.39911 8.76189 2.60103V4.19036" stroke="#072856" stroke-linecap="round" stroke-linejoin="round"/>
</g>
<g clip-path="url(#clip1)">
<path d="M7.99999 14.0951H4.95234C4.75027 14.0951 4.55647 14.0149 4.41359 13.872C4.2707 13.7291 4.19043 13.5353 4.19043 13.3332V4.95233C4.19043 4.75026 4.2707 4.55647 4.41359 4.41358C4.55647 4.2707 4.75027 4.19043 4.95234 4.19043H10.3512C10.5532 4.19047 10.7468 4.27067 10.8897 4.41341L12.3485 5.8722C12.4912 6.01503 12.5714 6.20868 12.5715 6.4106V7.99993" stroke="#072856" stroke-linecap="round" stroke-linejoin="round"/>
</g>
<path d="M8 14.0952H11.5715C12.1238 14.0952 12.5715 13.6475 12.5715 13.0952V8" stroke="#072856"/>
<defs>
<clipPath id="clip0">
<rect width="12.1906" height="12.1904" fill="white"/>
</clipPath>
<clipPath id="clip1">
<rect width="12.1906" height="12.1904" fill="white" transform="translate(3.80957 3.80957)"/>
</clipPath>
</defs>
</svg>
