<svg width="16" height="16" viewBox="0 0 16 16" fill="none" xmlns="http://www.w3.org/2000/svg">
<path d="M15.0867 9.91333L10 15L7.5 15.5L8 13L13.0867 7.91333C13.2176 7.78222 13.373 7.67821 13.5442 7.60725C13.7153 7.53628 13.8987 7.49976 14.084 7.49976C14.2693 7.49976 14.4527 7.53628 14.6238 7.60725C14.795 7.67821 14.9504 7.78222 15.0813 7.91333L15.0867 7.91866C15.2178 8.04956 15.3218 8.20502 15.3927 8.37615C15.4637 8.54728 15.5002 8.73073 15.5002 8.91599C15.5002 9.10125 15.4637 9.2847 15.3927 9.45583C15.3218 9.62697 15.2178 9.78243 15.0867 9.91333V9.91333Z" stroke="#072856" stroke-linecap="round" stroke-linejoin="round"/>
<path d="M5.5 13.5H1.5C1.23478 13.5 0.98043 13.3946 0.792893 13.2071C0.605357 13.0196 0.5 12.7652 0.5 12.5V1.5C0.5 1.23478 0.605357 0.98043 0.792893 0.792893C0.98043 0.605357 1.23478 0.5 1.5 0.5H8.586C8.85103 0.500057 9.1052 0.605321 9.29267 0.792667L11.2073 2.70733C11.3947 2.8948 11.4999 3.14897 11.5 3.414V5.5" stroke="#072856" stroke-linecap="round" stroke-linejoin="round"/>
</svg>
