<svg width="18" height="18" viewBox="0 0 18 18" fill="none" xmlns="http://www.w3.org/2000/svg">
<path d="M16.6014 7.09079C16.9273 6.77309 17.0424 6.30681 16.9017 5.87393C16.7611 5.44105 16.3939 5.1315 15.9435 5.06607L12.0049 4.49377C11.9276 4.48255 11.8608 4.434 11.8262 4.3639L10.0648 0.795012C9.86343 0.386848 9.45555 0.133301 9.00038 0.133301C8.54521 0.133301 8.13733 0.386848 7.93592 0.795012L6.17456 4.36393C6.13993 4.434 6.07313 4.48255 5.99579 4.4938L2.0573 5.06607C1.60688 5.1315 1.23974 5.44105 1.09905 5.87393C0.958354 6.30681 1.07346 6.77309 1.39942 7.09079L4.24937 9.8688C4.3053 9.92337 4.33086 10.0019 4.31764 10.079L3.64485 14.0016C3.56793 14.4502 3.74885 14.895 4.11707 15.1626C4.4853 15.4302 4.96441 15.4647 5.36723 15.253L8.88992 13.401C8.95911 13.3646 9.04169 13.3646 9.11091 13.401L12.6336 15.253C12.8089 15.3451 12.9985 15.3906 13.1871 15.3906C13.4322 15.3906 13.6757 15.3138 13.8837 15.1625C14.2519 14.895 14.4329 14.4501 14.3559 14.0015L13.6831 10.0789C13.6699 10.0019 13.6955 9.92333 13.7514 9.86877L16.6014 7.09079ZM12.7472 10.2395L13.42 14.1622C13.4425 14.2935 13.3615 14.3683 13.3256 14.3944C13.2897 14.4204 13.1934 14.4744 13.0756 14.4124L9.55283 12.5604C9.37989 12.4695 9.19019 12.424 9.00045 12.424C8.81071 12.424 8.62098 12.4695 8.44808 12.5604L4.92538 14.4123C4.80747 14.4743 4.71125 14.4203 4.67535 14.3943C4.63946 14.3682 4.55839 14.2934 4.58092 14.1621L5.25371 10.2395C5.31977 9.85439 5.19219 9.46163 4.91231 9.18885L2.06237 6.41084C1.96699 6.31781 1.98857 6.20964 2.00232 6.16745C2.01599 6.12523 2.06215 6.025 2.19396 6.00587L6.1324 5.43356C6.51909 5.37738 6.85325 5.13466 7.02622 4.78419L8.78758 1.21527C8.84654 1.09584 8.95608 1.08294 9.00049 1.08294C9.04482 1.08294 9.15437 1.09581 9.21336 1.21527V1.2153L10.9747 4.78423C11.1477 5.1347 11.4818 5.37742 11.8685 5.4336L15.807 6.00591C15.9388 6.02503 15.9849 6.12526 15.9986 6.16748C16.0123 6.20971 16.034 6.31792 15.9385 6.41087L13.0886 9.18888C12.8088 9.46163 12.6812 9.85439 12.7472 10.2395Z" fill="#85929E"/>
<path d="M14.547 0.795538C14.3348 0.641413 14.0379 0.688452 13.8838 0.900585L13.3798 1.59429C13.2257 1.80642 13.2727 2.10339 13.4848 2.25751C13.5692 2.31872 13.6668 2.34821 13.7635 2.34821C13.9104 2.34821 14.0552 2.28033 14.148 2.1525L14.6521 1.4588C14.8062 1.24663 14.7592 0.949663 14.547 0.795538Z" fill="#85929E"/>
<path d="M4.6179 1.59107L4.11386 0.897361C3.95977 0.685298 3.66284 0.638259 3.45063 0.792314C3.2385 0.946439 3.19146 1.2434 3.34559 1.45554L3.84963 2.14924C3.94254 2.27718 4.08732 2.34503 4.2342 2.34503C4.33099 2.34503 4.42865 2.31553 4.51289 2.25429C4.72502 2.1002 4.77206 1.80323 4.6179 1.59107Z" fill="#85929E"/>
<path d="M1.74206 10.7862C1.66102 10.5369 1.39316 10.4003 1.14373 10.4814L0.328212 10.7464C0.0787781 10.8274 -0.0576634 11.0953 0.0233718 11.3447C0.0885515 11.5454 0.274704 11.673 0.474848 11.673C0.523469 11.673 0.572934 11.6654 0.621696 11.6495L1.43722 11.3845C1.68661 11.3035 1.82309 11.0356 1.74206 10.7862Z" fill="#85929E"/>
<path d="M9.00021 16.0598C8.73798 16.0598 8.52539 16.2724 8.52539 16.5346V17.3922C8.52539 17.6544 8.73798 17.867 9.00021 17.867C9.26244 17.867 9.47503 17.6544 9.47503 17.3922V16.5346C9.47503 16.2724 9.26248 16.0598 9.00021 16.0598Z" fill="#85929E"/>
<path d="M17.6716 10.7471L16.8561 10.4821C16.6067 10.4011 16.3388 10.5375 16.2577 10.787C16.1767 11.0364 16.3132 11.3042 16.5626 11.3853L17.3781 11.6503C17.4269 11.6661 17.4763 11.6736 17.5249 11.6736C17.7251 11.6736 17.9113 11.5461 17.9764 11.3454C18.0575 11.096 17.921 10.8281 17.6716 10.7471Z" fill="#85929E"/>
</svg>
