<svg width="18" height="18" viewBox="0 0 18 18" fill="none" xmlns="http://www.w3.org/2000/svg">
<path d="M13.184 7.91498C13.0978 7.69687 12.8511 7.59006 12.6329 7.6762C12.4148 7.76243 12.3079 8.00916 12.3941 8.22727C12.61 8.77307 12.7193 9.34991 12.7193 9.94184C12.7193 12.5132 10.6274 14.6051 8.05603 14.6051C5.48446 14.6051 3.39227 12.5132 3.39227 9.94184C3.39227 7.37051 5.48446 5.27854 8.05603 5.27854C8.65003 5.27854 9.22786 5.38861 9.77349 5.6057C9.99135 5.6925 10.2383 5.58602 10.3251 5.36815C10.4118 5.15022 10.3054 4.90328 10.0875 4.81659C9.44154 4.55952 8.75803 4.4292 8.05607 4.4292C5.01618 4.4292 2.54297 6.90213 2.54297 9.9418C2.54297 12.9815 5.01607 15.4544 8.05603 15.4544C11.0957 15.4544 13.5686 12.9815 13.5686 9.94184C13.5686 9.24255 13.4392 8.56066 13.184 7.91498Z" fill="#072856"/>
<path d="M15.8029 7.72036C15.7384 7.49486 15.5035 7.36454 15.2779 7.42891C15.0524 7.49346 14.9219 7.72855 14.9864 7.954C15.1705 8.59743 15.2638 9.26604 15.2638 9.9411C15.2638 13.9153 12.0308 17.1486 8.05683 17.1486C4.08263 17.1486 0.84934 13.9153 0.84934 9.9411C0.84934 5.96687 4.08259 2.73365 8.05683 2.73365C8.73345 2.73365 9.40317 2.82741 10.0473 3.01237C10.2728 3.07706 10.508 2.94684 10.5726 2.72138C10.6374 2.49593 10.5071 2.26073 10.2817 2.19604C9.56134 1.98918 8.81276 1.88428 8.05683 1.88428C3.61427 1.88431 0 5.49859 0 9.94114C0 14.3837 3.61427 17.998 8.05683 17.998C12.4991 17.998 16.1132 14.3837 16.1132 9.94114C16.1132 9.18697 16.0088 8.43979 15.8029 7.72036Z" fill="#072856"/>
<path d="M11.0136 9.68229C10.9928 9.44868 10.7864 9.27711 10.5529 9.29705C10.3193 9.31789 10.1468 9.52419 10.1677 9.75781C10.173 9.81827 10.1758 9.88011 10.1758 9.9416C10.1758 11.1101 9.22515 12.0606 8.05673 12.0606C6.888 12.0606 5.93716 11.11 5.93716 9.9416C5.93723 8.77283 6.88803 7.82203 8.05677 7.82203C8.12205 7.82203 8.18597 7.82488 8.24682 7.83047C8.48057 7.85191 8.68715 7.68014 8.7087 7.44656C8.73022 7.21302 8.55834 7.00627 8.3248 6.98468C8.23817 6.9767 8.148 6.97266 8.0568 6.97266C6.41975 6.97266 5.08789 8.30445 5.08789 9.94153C5.08789 11.5783 6.41975 12.9099 8.0568 12.9099C9.69357 12.9099 11.0252 11.5783 11.0252 9.94153C11.0251 9.85501 11.0213 9.76772 11.0136 9.68229Z" fill="#072856"/>
<path d="M17.9353 2.85634C17.8033 2.53775 17.4952 2.33188 17.1504 2.33188H15.6696V0.851166C15.6696 0.506283 15.4637 0.198209 15.1452 0.0662677C14.8267 -0.0656386 14.4634 0.00667783 14.2197 0.250451L11.7455 2.72464C11.505 2.96515 11.3725 3.285 11.3725 3.62528V6.02838L7.92125 9.47967C7.75542 9.6455 7.75542 9.91441 7.92125 10.0803C8.00415 10.1632 8.11285 10.2047 8.22152 10.2047C8.33019 10.2047 8.43889 10.1632 8.52179 10.0803L11.9731 6.62896H14.3762C14.7165 6.62896 15.0364 6.49649 15.2769 6.25602L17.751 3.78176C17.9949 3.53795 18.0672 3.17475 17.9353 2.85634ZM12.2219 3.62524C12.2219 3.51186 12.266 3.40527 12.3461 3.32522L14.8203 0.851412V2.58068L12.2218 5.17911V3.62524H12.2219ZM14.6763 5.65541C14.5974 5.7343 14.488 5.77962 14.3763 5.77962H12.8225L15.4209 3.18125L17.1503 3.18146L14.6763 5.65541Z" fill="#072856"/>
</svg>
