<svg width="20" height="20" viewBox="0 0 20 20" fill="none" xmlns="http://www.w3.org/2000/svg">
<path d="M8.88842 10.3895C8.88882 10.5816 8.81293 10.766 8.67744 10.9022C8.54195 11.0384 8.35794 11.1152 8.16584 11.1158H2.38518C2.29004 11.1156 2.19586 11.0966 2.10804 11.06C2.02022 11.0234 1.94047 10.9698 1.87336 10.9024C1.80626 10.8349 1.7531 10.7549 1.71694 10.6669C1.68077 10.5789 1.66231 10.4846 1.6626 10.3895V2.39291C1.66241 2.29773 1.68096 2.20344 1.71721 2.11543C1.75345 2.02742 1.80668 1.94741 1.87384 1.87996C1.94101 1.81252 2.0208 1.75897 2.10867 1.72237C2.19653 1.68576 2.29074 1.66682 2.38592 1.66663L8.16658 1.67626C8.35855 1.67705 8.54237 1.75396 8.6777 1.89012C8.81303 2.02628 8.88882 2.21057 8.88842 2.40255V10.3895Z" stroke="#85929E" stroke-width="1.5" stroke-linecap="round" stroke-linejoin="round"/>
<path d="M18.3346 5.95619C18.3332 6.14652 18.2563 6.32853 18.1208 6.46221C17.9854 6.59589 17.8023 6.67032 17.612 6.66914H11.8313C11.7371 6.66982 11.6436 6.65191 11.5562 6.61645C11.4689 6.58098 11.3894 6.52864 11.3223 6.46243C11.2552 6.39621 11.2018 6.31742 11.1651 6.23056C11.1285 6.14369 11.1093 6.05046 11.1088 5.95619V2.38923C11.1099 2.19909 11.1866 2.0172 11.3218 1.88351C11.457 1.74983 11.6397 1.67529 11.8299 1.67628L17.6105 1.66664C17.8011 1.66526 17.9843 1.73958 18.1201 1.87326C18.2559 2.00695 18.333 2.18906 18.3346 2.37959V5.95619Z" stroke="#85929E" stroke-width="1.5" stroke-linecap="round" stroke-linejoin="round"/>
<path d="M8.88842 17.6264C8.88784 17.7209 8.86864 17.8144 8.83194 17.9015C8.79524 17.9886 8.74174 18.0676 8.67451 18.134C8.60727 18.2004 8.52761 18.2529 8.44008 18.2885C8.35255 18.3242 8.25886 18.3422 8.16435 18.3416L2.3837 18.332C2.19336 18.3328 2.0105 18.258 1.87529 18.124C1.74008 17.99 1.66358 17.8079 1.6626 17.6176V14.0536C1.66308 13.9592 1.68216 13.8658 1.71875 13.7788C1.75533 13.6919 1.80871 13.6129 1.87581 13.5466C1.94292 13.4802 2.02245 13.4278 2.10985 13.3922C2.19725 13.3566 2.29081 13.3385 2.38518 13.3391H8.16584C8.35637 13.3381 8.5395 13.4128 8.67499 13.5468C8.81048 13.6808 8.88724 13.863 8.88842 14.0536V17.6264Z" stroke="#85929E" stroke-width="1.5" stroke-linecap="round" stroke-linejoin="round"/>
<path d="M11.8321 18.3416C11.7368 18.3414 11.6426 18.3224 11.5547 18.2858C11.4667 18.2491 11.3869 18.1955 11.3197 18.128C11.2526 18.0605 11.1994 17.9804 11.1632 17.8923C11.127 17.8042 11.1085 17.7098 11.1088 17.6146V9.61949C11.1085 9.5243 11.1269 9.42999 11.1631 9.34194C11.1992 9.2539 11.2524 9.17383 11.3195 9.10632C11.3866 9.03881 11.4663 8.98517 11.5541 8.94848C11.642 8.91178 11.7362 8.89275 11.8313 8.89246H17.612C17.7072 8.89275 17.8014 8.91178 17.8892 8.94848C17.977 8.98517 18.0568 9.03881 18.1239 9.10632C18.191 9.17383 18.2441 9.2539 18.2803 9.34194C18.3164 9.42999 18.3349 9.5243 18.3346 9.61949V17.6049C18.335 17.797 18.2592 17.9814 18.1239 18.1176C17.9886 18.2539 17.8048 18.331 17.6127 18.332L11.8321 18.3416Z" stroke="#85929E" stroke-width="1.5" stroke-linecap="round" stroke-linejoin="round"/>
</svg>

