<svg width="20" height="20" viewBox="0 0 20 20" fill="none" xmlns="http://www.w3.org/2000/svg">
<path fill-rule="evenodd" clip-rule="evenodd" d="M10.1138 5.85432C9.81207 5.83346 9.51038 5.89595 9.24173 6.03496C8.97308 6.17398 8.74781 6.38416 8.59055 6.64255C8.43329 6.90094 8.35008 7.19759 8.35002 7.50008C8.34993 7.96952 7.9693 8.35 7.49986 8.34991C7.03042 8.34982 6.64993 7.96919 6.65002 7.49975C6.65014 6.88562 6.81908 6.28333 7.13837 5.75872C7.45766 5.23411 7.91501 4.80736 8.46045 4.52512C9.00589 4.24288 9.61842 4.11601 10.2311 4.15837C10.8438 4.20073 11.433 4.41069 11.9344 4.76531C12.4358 5.11993 12.8301 5.60556 13.0741 6.16912C13.3182 6.73268 13.4026 7.35248 13.3182 7.96079C13.2338 8.5691 12.9838 9.1425 12.5956 9.61833C12.2073 10.0942 11.6957 10.4541 11.1167 10.6588C11.0387 10.6864 10.9711 10.7375 10.9234 10.8051C10.8756 10.8727 10.85 10.9534 10.85 11.0361L10.85 11.8749C10.85 12.3444 10.4695 12.7249 10 12.7249C9.53058 12.7249 9.15002 12.3444 9.15002 11.8749V11.037C9.15002 11.0369 9.15002 11.0372 9.15002 11.037C9.14989 10.6027 9.28441 10.1786 9.53506 9.82394C9.7858 9.46914 10.1404 9.20085 10.55 9.05603C10.8352 8.9552 11.0872 8.77792 11.2784 8.54355C11.4697 8.30919 11.5928 8.02677 11.6344 7.72716C11.6759 7.42754 11.6343 7.12226 11.5141 6.84469C11.3939 6.56712 11.1997 6.32793 10.9528 6.15326C10.7058 5.9786 10.4156 5.87519 10.1138 5.85432Z" fill="#858C95"/>
<path d="M10 14C9.80222 14 9.60888 14.0586 9.44443 14.1685C9.27998 14.2784 9.15181 14.4346 9.07612 14.6173C9.00043 14.8 8.98063 15.0011 9.01922 15.1951C9.0578 15.3891 9.15304 15.5673 9.29289 15.7071C9.43274 15.847 9.61093 15.9422 9.80491 15.9808C9.99889 16.0194 10.2 15.9996 10.3827 15.9239C10.5654 15.8482 10.7216 15.72 10.8315 15.5556C10.9414 15.3911 11 15.1978 11 15C11 14.7348 10.8946 14.4804 10.7071 14.2929C10.5196 14.1054 10.2652 14 10 14Z" fill="#85929E"/>
<path d="M18.525 10C18.525 14.7082 14.7082 18.525 10 18.525C5.29177 18.525 1.475 14.7082 1.475 10C1.475 5.29177 5.29177 1.475 10 1.475C14.7082 1.475 18.525 5.29177 18.525 10Z" stroke="#85929E" stroke-width="1.7" stroke-miterlimit="10"/>
</svg>
