<svg width="20" height="20" viewBox="0 0 20 20" fill="none" xmlns="http://www.w3.org/2000/svg">
<g clip-path="url(#clip0)">
<path fill-rule="evenodd" clip-rule="evenodd" d="M1.41406 15.625C1.41406 15.2798 1.69388 15 2.03906 15H6.8749C7.22008 15 7.4999 15.2798 7.4999 15.625C7.4999 15.9702 7.22008 16.25 6.8749 16.25H2.03906C1.69388 16.25 1.41406 15.9702 1.41406 15.625Z" fill="#061325"/>
<path fill-rule="evenodd" clip-rule="evenodd" d="M0.549235 0.549175C0.900865 0.197544 1.37778 0 1.87506 0H5.62506C6.12234 0 6.59926 0.197544 6.95089 0.549175C7.30252 0.900806 7.50006 1.37772 7.50006 1.875V2.5H15.6251C16.1223 2.5 16.5993 2.69754 16.9509 3.04917C17.3025 3.4008 17.5001 3.87772 17.5001 4.375V6.25H18.1248C18.1249 6.25 18.1248 6.25 18.1248 6.25C18.4122 6.24993 18.6959 6.31591 18.9537 6.44283C19.2116 6.56978 19.4368 6.75432 19.612 6.98217C19.7871 7.21003 19.9076 7.4751 19.964 7.75693C20.0204 8.03875 20.0113 8.32977 19.9373 8.6075C19.8485 8.94105 19.5061 9.13944 19.1726 9.05062C18.839 8.96179 18.6406 8.61939 18.7294 8.28583C18.7541 8.19326 18.7571 8.09625 18.7383 8.00231C18.7195 7.90837 18.6794 7.82001 18.621 7.74406C18.5626 7.66811 18.4875 7.60659 18.4016 7.56428C18.3156 7.52196 18.2211 7.49997 18.1253 7.5H6.56589C6.43031 7.49992 6.29802 7.54394 6.18964 7.62542C6.08131 7.70685 6.00239 7.82129 5.96476 7.95148C5.96475 7.95154 5.96478 7.95142 5.96476 7.95148L4.00659 14.743C4.00641 14.7436 4.00623 14.7443 4.00605 14.7449C3.87261 15.2163 3.57412 15.624 3.16502 15.8935C2.75538 16.1635 2.26223 16.2769 1.77581 16.2131C1.28939 16.1492 0.842236 15.9123 0.51616 15.5458C0.190085 15.1792 0.00689816 14.7075 0.000119328 14.217L0 14.2083L5.96642e-05 1.875C5.96642e-05 1.37772 0.197604 0.900805 0.549235 0.549175ZM16.2501 6.25V4.375C16.2501 4.20924 16.1842 4.05027 16.067 3.93306C15.9498 3.81585 15.7908 3.75 15.6251 3.75H6.87506C6.52988 3.75 6.25006 3.47018 6.25006 3.125V1.875C6.25006 1.70924 6.18421 1.55027 6.067 1.43306C5.94979 1.31585 5.79082 1.25 5.62506 1.25H1.87506C1.7093 1.25 1.55033 1.31585 1.43312 1.43306C1.31591 1.55027 1.25006 1.70924 1.25006 1.875V14.2034C1.25355 14.3923 1.32448 14.5737 1.4501 14.7149C1.57653 14.8571 1.74992 14.9489 1.93853 14.9737C2.12715 14.9985 2.31837 14.9545 2.47721 14.8498C2.63605 14.7451 2.75189 14.5868 2.80353 14.4037L2.80451 14.4002L4.76369 7.60518C4.8765 7.21437 5.11339 6.87067 5.43853 6.62625C5.76367 6.38183 6.15948 6.24977 6.56624 6.25H16.2501Z" fill="#061325"/>
<path fill-rule="evenodd" clip-rule="evenodd" d="M14.375 10C11.9588 10 10 11.9588 10 14.375C10 16.7912 11.9588 18.75 14.375 18.75C16.7912 18.75 18.75 16.7912 18.75 14.375C18.75 11.9588 16.7912 10 14.375 10ZM8.75 14.375C8.75 11.2684 11.2684 8.75 14.375 8.75C17.4816 8.75 20 11.2684 20 14.375C20 17.4816 17.4816 20 14.375 20C11.2684 20 8.75 17.4816 8.75 14.375Z" fill="#061325"/>
<path fill-rule="evenodd" clip-rule="evenodd" d="M14.375 11.25C14.7202 11.25 15 11.5298 15 11.875V16.875C15 17.2202 14.7202 17.5 14.375 17.5C14.0298 17.5 13.75 17.2202 13.75 16.875V11.875C13.75 11.5298 14.0298 11.25 14.375 11.25Z" fill="#061325"/>
<path fill-rule="evenodd" clip-rule="evenodd" d="M11.25 14.375C11.25 14.0298 11.5298 13.75 11.875 13.75H16.875C17.2202 13.75 17.5 14.0298 17.5 14.375C17.5 14.7202 17.2202 15 16.875 15H11.875C11.5298 15 11.25 14.7202 11.25 14.375Z" fill="#061325"/>
</g>
<defs>
<clipPath id="clip0">
<rect width="20" height="20" fill="white"/>
</clipPath>
</defs>
</svg>
