<svg width="20" height="20" viewBox="0 0 20 20" fill="none" xmlns="http://www.w3.org/2000/svg">
<path fill-rule="evenodd" clip-rule="evenodd" d="M13.1388 0.833374H4.16667C3.24619 0.833374 2.5 1.57957 2.5 2.50004V17.5C2.5 18.4205 3.24619 19.1667 4.16667 19.1667H15.8333C16.7538 19.1667 17.5 18.4205 17.5 17.5V4.89384C17.5 4.41762 17.2963 3.96414 16.9403 3.64786L14.2458 1.25406C13.9407 0.983057 13.5469 0.833374 13.1388 0.833374ZM4.16667 14.1667V2.50004H11.6667V6.70841C11.6667 7.16865 12.0398 7.54175 12.5 7.54175H14.5726C15.0328 7.54175 15.4059 7.16865 15.4059 6.70841C15.4059 6.24818 15.0328 5.87508 14.5726 5.87508H13.3333V2.67283L15.8333 4.89384V14.1667H4.16667ZM4.16667 15.8334V17.5H15.8333V15.8334H4.16667Z" fill="#85929E"/>
</svg>

