<svg width="16" height="16" viewBox="0 0 16 16" fill="none" xmlns="http://www.w3.org/2000/svg">
<g clip-path="url(#clip0)">
<path d="M15.6667 15.3334H0.333344C0.149344 15.3334 0 15.4827 0 15.6667C0 15.8507 0.149344 16 0.333344 16H15.6667C15.8507 16 16 15.8507 16 15.6667C16 15.4827 15.8507 15.3334 15.6667 15.3334Z" fill="#85929E"/>
<path d="M2.99979 11.3334H0.999787C0.815787 11.3334 0.666443 11.4827 0.666443 11.6667V15.6667C0.666443 15.8507 0.815787 16 0.999787 16H2.99979C3.18379 16 3.33313 15.8507 3.33313 15.6667V11.6667C3.33313 11.4827 3.18379 11.3334 2.99979 11.3334ZM2.66644 15.3334H1.33313V12H2.66647V15.3334H2.66644Z" fill="#85929E" stroke="#85929E" stroke-width="0.25"/>
<path d="M6.99979 8H4.99979C4.81579 8 4.66644 8.14934 4.66644 8.33334V15.6667C4.66644 15.8507 4.81579 16 4.99979 16H6.99979C7.18379 16 7.33313 15.8507 7.33313 15.6667V8.33334C7.33313 8.14934 7.18379 8 6.99979 8ZM6.66644 15.3333H5.3331V8.66666H6.66644V15.3333Z" fill="#85929E" stroke="#85929E" stroke-width="0.25"/>
<path d="M10.9998 9.33337H8.99979C8.81579 9.33337 8.66644 9.48272 8.66644 9.66672V15.6667C8.66644 15.8507 8.81579 16.0001 8.99979 16.0001H10.9998C11.1838 16.0001 11.3331 15.8507 11.3331 15.6667V9.66672C11.3331 9.48269 11.1838 9.33337 10.9998 9.33337ZM10.6664 15.3334H9.3331V10H10.6664V15.3334Z" fill="#85929E" stroke="#85929E" stroke-width="0.25"/>
<path d="M14.9998 5.33325H12.9998C12.8158 5.33325 12.6664 5.4826 12.6664 5.6666V15.6666C12.6664 15.8506 12.8158 15.9999 12.9998 15.9999H14.9998C15.1838 15.9999 15.3331 15.8506 15.3331 15.6666V5.6666C15.3331 5.48256 15.1838 5.33325 14.9998 5.33325ZM14.6664 15.3333H13.3331V5.99991H14.6664V15.3333Z" fill="#85929E" stroke="#85929E" stroke-width="0.25"/>
<path d="M1.99979 7C1.26444 7 0.666443 7.598 0.666443 8.33334C0.666443 9.06869 1.26444 9.66669 1.99979 9.66669C2.73513 9.66669 3.33313 9.06869 3.33313 8.33334C3.33313 7.598 2.73513 7 1.99979 7ZM1.99979 9C1.63179 9 1.33313 8.70066 1.33313 8.33334C1.33313 7.966 1.63179 7.66669 1.99979 7.66669C2.36779 7.66669 2.66644 7.96603 2.66644 8.33334C2.66644 8.70066 2.36779 9 1.99979 9Z" fill="#85929E" stroke="#85929E" stroke-width="0.25"/>
<path d="M5.99979 3.66663C5.26444 3.66663 4.66644 4.26463 4.66644 4.99997C4.66644 5.73531 5.26444 6.33331 5.99979 6.33331C6.73513 6.33331 7.33313 5.73531 7.33313 4.99997C7.33313 4.26463 6.73513 3.66663 5.99979 3.66663ZM5.99979 5.66662C5.63179 5.66662 5.33313 5.36728 5.33313 4.99997C5.33313 4.63262 5.63179 4.33331 5.99979 4.33331C6.36779 4.33331 6.66644 4.63266 6.66644 4.99997C6.66644 5.36731 6.36779 5.66662 5.99979 5.66662Z" fill="#85929E" stroke="#85929E" stroke-width="0.25"/>
<path d="M9.99936 5C9.26402 5 8.66602 5.598 8.66602 6.33334C8.66602 7.06869 9.26402 7.66669 9.99936 7.66669C10.7347 7.66669 11.3327 7.06869 11.3327 6.33334C11.3327 5.598 10.7347 5 9.99936 5ZM9.99936 7C9.63136 7 9.3327 6.70066 9.3327 6.33334C9.3327 5.966 9.63136 5.66669 9.99936 5.66669C10.3674 5.66669 10.666 5.96603 10.666 6.33334C10.666 6.70066 10.3674 7 9.99936 7Z" fill="#85929E" stroke="#85929E" stroke-width="0.25"/>
<path d="M13.9998 1C13.2644 1 12.6664 1.598 12.6664 2.33334C12.6664 3.06869 13.2644 3.66669 13.9998 3.66669C14.7351 3.66669 15.3331 3.06869 15.3331 2.33334C15.3331 1.598 14.7351 1 13.9998 1ZM13.9998 3C13.6318 3 13.3331 2.70066 13.3331 2.33334C13.3331 1.966 13.6318 1.66669 13.9998 1.66669C14.3678 1.66669 14.6664 1.96603 14.6664 2.33334C14.6664 2.70066 14.3678 3 13.9998 3Z" fill="#85929E" stroke="#85929E" stroke-width="0.25"/>
<path d="M13.5295 2.80404C13.3995 2.67404 13.1881 2.67404 13.0581 2.80404L10.4715 5.3907C10.3415 5.5207 10.3415 5.73204 10.4715 5.86204C10.5368 5.9267 10.6221 5.95939 10.7075 5.95939C10.7921 5.95939 10.8775 5.92739 10.9428 5.86204L13.5295 3.27539C13.6595 3.14539 13.6595 2.93404 13.5295 2.80404Z" fill="#85929E" stroke="#85929E" stroke-width="0.25"/>
<path d="M9.19404 5.56401L7.0527 4.95335C6.87335 4.90135 6.69135 5.00535 6.64135 5.1827C6.5907 5.36004 6.69335 5.54404 6.87001 5.5947L9.01135 6.20535C9.04201 6.21401 9.07269 6.21801 9.10269 6.21801C9.24804 6.21801 9.38135 6.12266 9.42335 5.97601C9.47404 5.79935 9.37138 5.61466 9.19404 5.56401Z" fill="#85929E" stroke="#85929E" stroke-width="0.25"/>
<path d="M5.47991 5.41535C5.36525 5.27135 5.15591 5.248 5.01191 5.362L2.49856 7.366C2.35456 7.48135 2.33056 7.69066 2.44591 7.83466C2.51191 7.91732 2.60925 7.96 2.70656 7.96C2.77922 7.96 2.85256 7.936 2.91391 7.888L5.42725 5.884C5.57125 5.76866 5.59525 5.55935 5.47991 5.41535Z" fill="#85929E" stroke="#85929E" stroke-width="0.25"/>
</g>
<defs>
<clipPath id="clip0">
<rect width="16" height="16" fill="white"/>
</clipPath>
</defs>
</svg>
