<svg width="18" height="18" viewBox="0 0 18 18" fill="none" xmlns="http://www.w3.org/2000/svg">
<path d="M1 12.7334C1.00054 11.9398 1.19772 11.1588 1.5739 10.4601C1.95008 9.76145 2.49354 9.16687 3.1557 8.72957C3.81785 8.29227 4.57805 8.02587 5.36832 7.9542C6.1586 7.88253 6.95433 8.00781 7.68435 8.31885" stroke="#85929E" stroke-width="1.5" stroke-linecap="round" stroke-linejoin="round"/>
<path d="M5.7995 6.86658C7.41951 6.86658 8.73279 5.5533 8.73279 3.93329C8.73279 2.31328 7.41951 1 5.7995 1C4.17949 1 2.86621 2.31328 2.86621 3.93329C2.86621 5.5533 4.17949 6.86658 5.7995 6.86658Z" stroke="#85929E" stroke-width="1.5" stroke-linecap="round" stroke-linejoin="round"/>
<path d="M12.7336 13.2666C13.3227 13.2666 13.8003 12.789 13.8003 12.2C13.8003 11.6109 13.3227 11.1333 12.7336 11.1333C12.1445 11.1333 11.667 11.6109 11.667 12.2C11.667 12.789 12.1445 13.2666 12.7336 13.2666Z" stroke="#85929E" stroke-width="1.2" stroke-linecap="round" stroke-linejoin="round"/>
<path d="M13.639 8.07553L13.9533 9.10876C14.0052 9.28025 14.1202 9.42565 14.2752 9.51554C14.4302 9.60544 14.6135 9.63313 14.7881 9.59302L15.8349 9.35053C16.0333 9.30582 16.2408 9.32581 16.427 9.40756C16.6132 9.48932 16.7683 9.62855 16.8697 9.80487C16.9711 9.98119 17.0133 10.1853 16.9902 10.3874C16.9672 10.5894 16.88 10.7788 16.7415 10.9278L16.0084 11.7178C15.886 11.8494 15.818 12.0224 15.818 12.202C15.818 12.3817 15.886 12.5547 16.0084 12.6863L16.7415 13.4763C16.88 13.6253 16.9672 13.8146 16.9902 14.0167C17.0133 14.2188 16.9711 14.4229 16.8697 14.5992C16.7683 14.7755 16.6132 14.9148 16.427 14.9965C16.2408 15.0783 16.0333 15.0983 15.8349 15.0536L14.7881 14.8111C14.6135 14.771 14.4302 14.7986 14.2752 14.8885C14.1202 14.9784 14.0052 15.1238 13.9533 15.2953L13.639 16.3243C13.5806 16.5192 13.4609 16.69 13.2977 16.8115C13.1345 16.9329 12.9365 16.9985 12.733 16.9985C12.5296 16.9985 12.3316 16.9329 12.1684 16.8115C12.0052 16.69 11.8855 16.5192 11.8271 16.3243L11.5128 15.2911C11.4609 15.1196 11.3459 14.9742 11.1909 14.8843C11.0359 14.7944 10.8526 14.7667 10.678 14.8068L9.63123 15.0493C9.43283 15.094 9.22533 15.074 9.03911 14.9923C8.8529 14.9105 8.69775 14.7713 8.5964 14.595C8.49504 14.4186 8.45281 14.2145 8.47587 14.0124C8.49894 13.8104 8.58609 13.621 8.72457 13.4721L9.45772 12.682C9.58008 12.5505 9.64809 12.3775 9.64809 12.1978C9.64809 12.0181 9.58008 11.8451 9.45772 11.7135L8.72457 10.9235C8.58609 10.7745 8.49894 10.5852 8.47587 10.3831C8.45281 10.1811 8.49504 9.97692 8.5964 9.8006C8.69775 9.62429 8.8529 9.48506 9.03911 9.4033C9.22533 9.32154 9.43283 9.30155 9.63123 9.34627L10.678 9.58875C10.8526 9.62887 11.0359 9.60118 11.1909 9.51128C11.3459 9.42138 11.4609 9.27598 11.5128 9.10449L11.8271 8.07126C11.886 7.87653 12.0061 7.70597 12.1695 7.5849C12.333 7.46382 12.5312 7.39869 12.7346 7.39917C12.9381 7.39965 13.1359 7.46571 13.2988 7.58756C13.4618 7.7094 13.581 7.88052 13.639 8.07553Z" stroke="#85929E" stroke-width="1.5" stroke-linecap="round" stroke-linejoin="round"/>
</svg>
