<svg width="20" height="20" viewBox="0 0 20 20" fill="none" xmlns="http://www.w3.org/2000/svg">
<path fill-rule="evenodd" clip-rule="evenodd" d="M13.3333 4.16675H2.49998C1.57951 4.16675 0.833313 4.91294 0.833313 5.83341V14.1667C0.833313 15.0872 1.57951 15.8334 2.49998 15.8334H13.3333C14.2538 15.8334 15 15.0872 15 14.1667V12.4265L17.9278 14.0653C18.4862 14.3641 19.1666 13.9671 19.1666 13.3426V6.65761C19.1666 6.03304 18.4862 5.63606 17.9278 5.9349L15 7.57963V5.83341C15 4.91294 14.2538 4.16675 13.3333 4.16675ZM2.49998 10.8334V5.83341H13.3333V10.8334H2.49998ZM2.49998 12.5001V14.1667H13.3333V12.5001H2.49998ZM14.1666 10.051L17.4632 8.06983V12.0323L14.1666 10.051ZM11.6666 8.75008C10.9763 8.75008 10.4166 8.19044 10.4166 7.50008C10.4166 6.80973 10.9763 6.25008 11.6666 6.25008C12.357 6.25008 12.9166 6.80973 12.9166 7.50008C12.9166 8.19044 12.357 8.75008 11.6666 8.75008Z" fill="#85929E"/>
</svg>
