<svg width="18" height="18" viewBox="0 0 18 18" fill="none" xmlns="http://www.w3.org/2000/svg">
<path d="M17.8891 3.75086C17.7804 3.60185 17.6069 3.51368 17.4225 3.51368H4.42787C4.40269 3.51368 4.37756 3.51521 4.35335 3.51847L3.81856 1.97685C3.76313 1.81741 3.64107 1.69032 3.48421 1.62857L0.788982 0.569782C0.491938 0.453486 0.156747 0.59939 0.0400882 0.896071C-0.0763688 1.19291 0.0694945 1.52831 0.366377 1.64497L2.81427 2.60659L5.81053 11.2431C5.67828 11.2892 5.56622 11.3907 5.51518 11.5327L4.64886 13.9391C4.59577 14.0867 4.61764 14.2506 4.708 14.3788C4.79823 14.507 4.94498 14.5834 5.10168 14.5834H5.54656C5.27086 14.8902 5.10168 15.2942 5.10168 15.7385C5.10168 16.6939 5.87905 17.4711 6.83431 17.4711C7.78958 17.4711 8.56695 16.6939 8.56695 15.7385C8.56695 15.2942 8.39776 14.8902 8.12207 14.5834H11.8996C11.6238 14.8902 11.4546 15.2942 11.4546 15.7385C11.4546 16.6939 12.2318 17.4711 13.1872 17.4711C14.1427 17.4711 14.9199 16.6939 14.9199 15.7385C14.9199 15.2942 14.7507 14.8902 14.475 14.5834H15.0162C15.282 14.5834 15.4974 14.3679 15.4974 14.1021C15.4974 13.8363 15.2819 13.6208 15.0162 13.6208H5.78648L6.32301 12.1305C6.39229 12.1597 6.46714 12.1769 6.54549 12.1769H15.016C15.2672 12.1769 15.4894 12.0147 15.5659 11.7758L17.9723 4.2676C18.0288 4.09181 17.9978 3.89986 17.8891 3.75086ZM6.83431 16.5085C6.40961 16.5085 6.06427 16.1632 6.06427 15.7385C6.06427 15.3138 6.40961 14.9684 6.83431 14.9684C7.25901 14.9684 7.60436 15.3138 7.60436 15.7385C7.60436 16.1632 7.25901 16.5085 6.83431 16.5085ZM13.1872 16.5085C12.7625 16.5085 12.4171 16.1632 12.4171 15.7385C12.4171 15.3138 12.7625 14.9684 13.1872 14.9684C13.6119 14.9684 13.9572 15.3138 13.9572 15.7385C13.9572 16.1632 13.6119 16.5085 13.1872 16.5085ZM16.2146 5.96826H13.2674V4.66878H16.631L16.2146 5.96826ZM15.3659 8.61531H13.2674V7.12332H15.8442L15.3659 8.61531ZM9.44914 8.61531V7.12332H12.1123V8.61531H9.44914ZM12.1123 9.77049V11.0218H9.44914V9.77049H12.1123ZM5.60392 7.12332H8.29416V8.61531H6.12159L5.60392 7.12332ZM9.44914 5.96826V4.66878H12.1123V5.96826H9.44914ZM8.29412 4.66878V5.96826H5.20307L4.75227 4.66878H8.29412ZM6.52241 9.77049H8.29412V11.0218H6.95649L6.52241 9.77049ZM13.2674 11.0219V9.77053H14.9959L14.5949 11.0219H13.2674Z" fill="#85929E"/>
</svg>
