<svg width="22" height="22" viewBox="0 0 22 22" fill="none" xmlns="http://www.w3.org/2000/svg">
<path d="M20.7524 7.6127C20.9104 7.77077 21.1633 7.77077 21.3169 7.6127L21.8814 7.04816C22.0395 6.89009 22.0395 6.63718 21.8814 6.48362L20.6033 5.20551C20.4453 5.04744 20.1923 5.04744 20.0388 5.20551L19.4743 5.77005C19.3162 5.92812 19.3162 6.18103 19.4743 6.33459L19.5284 6.38878L19.131 6.78622C18.1284 5.99135 16.9135 5.46294 15.5812 5.30939V4.58678H16.0193C16.2406 4.58678 16.4167 4.40613 16.4167 4.18935V3.01511C16.4167 2.79381 16.2361 2.61768 16.0193 2.61768H13.4811C13.2598 2.61768 13.0837 2.79833 13.0837 3.01511V4.18935C13.0837 4.41064 13.2643 4.58678 13.4811 4.58678H13.9192V5.30939C12.5869 5.46746 11.3675 5.99586 10.3694 6.78622L9.97197 6.38878L10.0262 6.33459C10.1842 6.17652 10.1842 5.9236 10.0262 5.77005L9.46163 5.20551C9.30356 5.04744 9.05065 5.04744 8.89709 5.20551L7.61898 6.48362C7.46091 6.64169 7.46091 6.89461 7.61898 7.04816L8.18352 7.6127C8.34159 7.77077 8.5945 7.77077 8.74805 7.6127L8.80225 7.5585L9.19968 7.95594C8.25126 9.15727 7.68672 10.6747 7.68672 12.3187C7.68672 16.2117 10.8572 19.3822 14.7502 19.3822C18.6433 19.3822 21.8137 16.2117 21.8137 12.3187C21.8137 10.6747 21.2446 9.15727 20.3007 7.95594L20.6982 7.5585L20.7524 7.6127ZM14.7502 17.7473C11.7604 17.7473 9.32614 15.313 9.32614 12.3232C9.32614 9.33341 11.7604 6.89912 14.7502 6.89912C17.74 6.89912 20.1743 9.33341 20.1743 12.3232C20.1743 15.313 17.74 17.7473 14.7502 17.7473Z" fill="#85929E"/>
<path d="M2.86784 14.2155C2.47944 14.2155 2.16782 14.5316 2.16782 14.9155C2.16782 15.3039 2.48396 15.6155 2.86784 15.6155H6.66605C6.74282 15.6155 6.81057 15.602 6.87831 15.5794C6.69766 15.1413 6.54862 14.6851 6.44475 14.2109H2.86784V14.2155Z" fill="#85929E"/>
<path d="M6.8738 9.07593C6.81057 9.05786 6.73831 9.03979 6.66605 9.03979H0.700026C0.311624 9.03979 0 9.35594 0 9.73982C0 10.1282 0.316141 10.4398 0.700026 10.4398H6.44024C6.54411 9.97918 6.68863 9.51852 6.8738 9.07593Z" fill="#85929E"/>
<path d="M6.23248 12.3232C6.23248 12.0883 6.24603 11.858 6.26409 11.6277H1.67554C1.28714 11.6277 0.975517 11.9438 0.975517 12.3277C0.975517 12.7116 1.29166 13.0277 1.67554 13.0277H6.25958C6.24603 12.7974 6.23248 12.5626 6.23248 12.3232Z" fill="#85929E"/>
<path d="M18.16 10.3048C18.0426 10.1106 17.7987 10.0339 17.5955 10.1377L15.1522 11.3346C14.8496 11.2126 14.4973 11.2262 14.1947 11.4023C13.6844 11.7049 13.5128 12.3643 13.8153 12.8746C14.1179 13.385 14.7773 13.5566 15.2877 13.254C15.5902 13.0733 15.7709 12.7707 15.807 12.4501L18.0336 10.8829C18.2232 10.7519 18.2774 10.5035 18.16 10.3048ZM15.2018 12.441C15.1341 12.6939 14.8767 12.843 14.6283 12.7797C14.3754 12.712 14.2263 12.4546 14.2896 12.2062C14.3573 11.9532 14.6147 11.8042 14.8631 11.8674C15.116 11.9307 15.2651 12.1926 15.2018 12.441Z" fill="#85929E"/>
<path d="M16.2767 9.63152C16.489 9.75346 16.76 9.67669 16.8774 9.46442C16.9993 9.25216 16.9226 8.98118 16.7103 8.86376C16.498 8.74182 16.2316 8.8186 16.1096 9.03086C16.0283 9.17538 16.0374 9.34248 16.1141 9.47346C16.1548 9.53217 16.209 9.59092 16.2767 9.63152Z" fill="#85929E"/>
<path d="M14.4426 8.8802C14.6865 8.8802 14.8807 8.68148 14.8807 8.4376C14.8807 8.19371 14.682 7.99951 14.4381 7.99951C14.1942 7.99951 14 8.19823 14 8.44211C14 8.52341 14.0226 8.60018 14.0587 8.66341C14.1355 8.79443 14.28 8.88476 14.4426 8.8802Z" fill="#85929E"/>
<path d="M14.7818 15.4304C14.538 15.4349 14.3438 15.6337 14.3438 15.8775C14.3438 15.9588 14.3663 16.0311 14.4025 16.0943C14.4792 16.2253 14.6238 16.3156 14.7864 16.3111C15.0302 16.3066 15.2244 16.1079 15.2199 15.864C15.2244 15.6291 15.0257 15.4304 14.7818 15.4304Z" fill="#85929E"/>
<path d="M16.3264 15.0015C16.1187 15.1234 16.0464 15.3944 16.1728 15.6022C16.2948 15.8144 16.5658 15.8822 16.778 15.7557C16.9858 15.6338 17.058 15.3628 16.9316 15.1551C16.8051 14.9473 16.5341 14.8795 16.3264 15.0015Z" fill="#85929E"/>
<path d="M18.0516 13.6916C17.8394 13.5742 17.5684 13.6464 17.451 13.8587C17.3697 14.0032 17.3787 14.1658 17.4555 14.3013C17.4916 14.3645 17.5503 14.4232 17.6181 14.4594C17.8303 14.5813 18.1013 14.5045 18.2187 14.2923C18.3362 14.08 18.2639 13.809 18.0516 13.6916Z" fill="#85929E"/>
<path d="M11.643 12.3641C11.643 12.1202 11.4398 11.926 11.2004 11.926C10.9565 11.9305 10.7623 12.1293 10.7623 12.3731C10.7623 12.4544 10.7849 12.5267 10.821 12.5899C10.8978 12.7209 11.0423 12.8112 11.2049 12.8067C11.4533 12.8067 11.6475 12.608 11.643 12.3641Z" fill="#85929E"/>
<path d="M11.4759 13.7551C11.2681 13.877 11.1959 14.148 11.3223 14.3558C11.4443 14.5635 11.7153 14.6358 11.9275 14.5093C12.1353 14.3874 12.203 14.1164 12.0811 13.9041C11.9546 13.7009 11.6837 13.6287 11.4759 13.7551Z" fill="#85929E"/>
<path d="M17.8529 12.3008C17.8529 12.382 17.8755 12.4543 17.9161 12.522C17.9929 12.653 18.1374 12.7388 18.3 12.7388C18.5439 12.7388 18.7381 12.5356 18.7381 12.2962C18.7381 12.0524 18.5394 11.8582 18.2955 11.8582C18.0471 11.8582 17.8484 12.0614 17.8529 12.3008Z" fill="#85929E"/>
<path d="M11.4443 10.9769C11.6566 11.0989 11.9275 11.0221 12.045 10.8098C12.1624 10.5976 12.0901 10.3311 11.8733 10.2092C11.6611 10.0917 11.3946 10.164 11.2727 10.3763C11.1959 10.5163 11.2004 10.6834 11.2772 10.8189C11.3178 10.8821 11.372 10.9363 11.4443 10.9769Z" fill="#85929E"/>
<path d="M13.165 9.66287C13.165 9.66287 13.1695 9.66287 13.1695 9.65836C13.174 9.65836 13.174 9.65836 13.174 9.65384C13.174 9.65384 13.174 9.65384 13.1785 9.65384C13.3863 9.5319 13.454 9.26092 13.3321 9.05317C13.2101 8.84091 12.9392 8.77316 12.7269 8.8951C12.7269 8.8951 12.7224 8.8951 12.7224 8.89962C12.7179 8.89962 12.7179 8.90413 12.7134 8.90413C12.5056 9.02607 12.4334 9.29705 12.5598 9.5048C12.6863 9.71711 12.9572 9.78486 13.165 9.66287Z" fill="#85929E"/>
<path d="M13.2237 15.0332C13.0114 14.9113 12.7405 14.988 12.623 15.2003C12.5418 15.3448 12.5508 15.5119 12.6276 15.6429C12.6637 15.7061 12.7224 15.7648 12.7901 15.8055C13.0024 15.9229 13.2734 15.8461 13.3908 15.6384C13.5128 15.4216 13.436 15.1551 13.2237 15.0332Z" fill="#85929E"/>
</svg>
