<svg width="22" height="13" viewBox="0 0 22 13" fill="none" xmlns="http://www.w3.org/2000/svg">
<path d="M7.33333 4.70833H4.58333V1.95833H2.75V4.70833H0V6.54167H2.75V9.29167H4.58333V6.54167H7.33333V4.70833ZM16.5 5.625C18.0583 5.625 19.25 4.43333 19.25 2.875C19.25 1.31667 18.0583 0.125 16.5 0.125C16.225 0.125 15.95 0.216667 15.675 0.216667C16.225 1.04167 16.5 1.86667 16.5 2.875C16.5 3.88333 16.225 4.70833 15.675 5.53333C15.95 5.53333 16.225 5.625 16.5 5.625ZM11.9167 5.625C13.475 5.625 14.6667 4.43333 14.6667 2.875C14.6667 1.31667 13.475 0.125 11.9167 0.125C10.3583 0.125 9.16667 1.31667 9.16667 2.875C9.16667 4.43333 10.3583 5.625 11.9167 5.625ZM17.9667 7.64166C18.7 8.28337 19.25 9.20003 19.25 10.2083V12.0417H22V10.2083C22 8.83333 19.8 7.91667 17.9667 7.64166ZM11.9167 7.45833C10.0833 7.45833 6.41667 8.375 6.41667 10.2083V12.0417H17.4167V10.2083C17.4167 8.375 13.75 7.45833 11.9167 7.45833Z" fill="#85929E"/>
</svg>
